<?xml version="1.0" encoding="utf-8"?>
<!-- Generator: Adobe Illustrator 27.5.0, SVG Export Plug-In . SVG Version: 6.00 Build 0)  -->
<svg version="1.1" id="Layer_3" xmlns="http://www.w3.org/2000/svg" xmlns:xlink="http://www.w3.org/1999/xlink" x="0px" y="0px"
	 viewBox="0 0 128 128" style="enable-background:new 0 0 128 128;" xml:space="preserve">
<style type="text/css">
	.st0{fill:#FFFFFF;}
</style>
<path class="st0" d="M107.9,64.3L107.9,64.3l-4,4.2c-0.6,0.7-1.7,0.7-2.4,0.1l-5-4.2v36.2c0,1-0.8,1.8-1.8,1.8H73
	c-1,0-1.8-0.8-1.8-1.8V87.8c0-4.2-3.3-7.7-7.3-7.7c-2,0-3.8,0.9-5.2,2.2c-1.3,1.4-2.1,3.3-2.1,5.4v12.7c0,1-0.8,1.8-1.8,1.8H33.2
	c-1,0-1.8-0.8-1.8-1.8V64.5l-5,4.2c-0.7,0.6-1.7,0.5-2.4-0.1l-4-4.2c-0.8-0.8-0.7-2.1,0.2-2.8L62,26.4c1.3-1.1,3.1-1.1,4.3,0
	l41.4,35.1C108.6,62.2,108.6,63.5,107.9,64.3z"/>
</svg>
