<?xml version="1.0" encoding="utf-8"?>
<!-- Generator: Adobe Illustrator 27.5.0, SVG Export Plug-In . SVG Version: 6.00 Build 0)  -->
<svg version="1.1" id="Layer_3" xmlns="http://www.w3.org/2000/svg" xmlns:xlink="http://www.w3.org/1999/xlink" x="0px" y="0px"
	 viewBox="0 0 128 128" style="enable-background:new 0 0 128 128;" xml:space="preserve">
<style type="text/css">
	.st0{fill:#FFFFFF;}
</style>
<path class="st0" d="M62.6,111c-12-0.3-23.3-5.2-31.8-13.8c-0.7-0.7-1.4-1.5-2.1-2.3c-0.2-0.1-0.5-0.5-0.7-0.9
	C20.9,85.8,17,75,17,64c0-1.3,0.1-2.6,0.2-3.9c0-0.1,0-0.3,0-0.5c1-10.8,5.8-21.1,13.6-28.8C39.6,21.9,51.4,17,64,17
	c0.5,0,1.7,0,1.8,0c0.2,0,0.3,0,0.5,0c11.7,0.5,22.7,5.4,31,13.7C106.1,39.6,111,51.4,111,64c0,12.6-4.9,24.4-13.8,33.3
	c-0.4,0.4-0.8,0.8-1.2,1.2c-0.2,0.3-0.6,0.7-1.1,0.9C86.5,106.9,75.5,111,64,111h-1.1L62.6,111z M55.4,74.3
	c1.3,9.9,4.4,20.4,9.3,31.3c8.7-0.1,16.9-2.9,23.9-8c-6.2-3.1-11.1-7.1-14.5-11.9c-2.4-3.4-4-7.1-4.9-11.1c-1.6,0.1-3.2,0.1-4.8,0.1
	h-0.4C61.1,74.6,58.2,74.5,55.4,74.3z M34.6,93.4c6.5,6.5,14.9,10.6,23.9,11.8c-4.6-10.9-7.6-21.5-8.7-31.6c-3.6-0.5-7-1.2-10.4-2.1
	c-0.6,7.7-2.5,14.7-5.8,20.9C34,92.8,34.3,93.1,34.6,93.4z M74.6,74.1c0.8,3,2,5.8,3.8,8.4c3.3,4.6,8.2,8.4,14.7,11.2l0.3-0.3
	c7.7-7.7,12-17.8,12.2-28.6C98.1,69.5,86.9,72.8,74.6,74.1z M22.5,64.8c0.2,8.3,2.7,16.2,7.5,22.9c2.4-5.3,3.8-11.3,4.2-17.8
	C30,68.6,26.1,66.8,22.5,64.8z M54.8,68.8c3,0.3,6,0.4,9.1,0.4h0.4c1.4,0,2.7,0,4.1-0.1c-0.2-5.2,0.7-10.5,2.8-15.9
	c3.3-8.5,9.5-16.5,17.3-22.7c-6.3-4.6-13.6-7.3-21.4-7.8c-7.7,11.9-11.9,24.7-12.4,38.3C54.6,63.4,54.7,66.1,54.8,68.8z M92.7,34
	c-7.5,5.7-13.3,13.2-16.4,21.2c-1.8,4.6-2.6,9.2-2.5,13.5c13.1-1.3,25-5.2,31.4-10.2c-1.2-9-5.4-17.4-11.8-23.8
	C93.2,34.4,93,34.2,92.7,34z M39.6,66c3.1,0.9,6.4,1.6,9.7,2.1c-0.1-2.5-0.2-5-0.1-7.4c0.5-13.4,4.3-26.2,11.4-38.1
	c-9.8,0.8-19,5-26,12L34,35.3C37.6,46.5,39.5,56.8,39.6,66z M22.8,58.7c3.5,2.1,7.3,4,11.3,5.5C33.8,57,32.4,49,29.8,40.3
	C26,45.8,23.6,52.1,22.8,58.7z"/>
</svg>
