<?xml version="1.0" encoding="utf-8"?>
<!-- Generator: Adobe Illustrator 27.5.0, SVG Export Plug-In . SVG Version: 6.00 Build 0)  -->
<svg version="1.1" id="Layer_3" xmlns="http://www.w3.org/2000/svg" xmlns:xlink="http://www.w3.org/1999/xlink" x="0px" y="0px"
	 viewBox="0 0 128 128" style="enable-background:new 0 0 128 128;" xml:space="preserve">
<style type="text/css">
	.st0{fill:#FFFFFF;}
</style>
<g>
	<path class="st0" d="M117.1,76.3V53.4l1-0.5c2.6-1.3,2.6-5.1,0-6.4L66.5,20.3c-2-1-4.5-1-6.5,0L8.5,46.5c-2.6,1.3-2.6,5.1,0,6.4
		L60,79.1c2,1,4.4,1,6.5,0L113,55.4v20.8c-1.7,0.8-2.8,2.4-2.8,4.4v12.2c0,1.2,1,2.2,2.2,2.2h5.3c1.2,0,2.2-1,2.2-2.2V80.7
		c0-1.3-0.5-2.6-1.4-3.4C118.1,76.8,117.6,76.5,117.1,76.3L117.1,76.3z"/>
	<path class="st0" d="M63.3,87.4c-1.9,0-3.8-0.5-5.5-1.3L26.8,70.3v21.1c0,0,8.7,17.1,36.5,17.1s36.5-16.9,36.5-16.9V70.3L68.8,86.1
		C67.1,86.9,65.2,87.4,63.3,87.4z"/>
</g>
</svg>
