<?xml version="1.0" encoding="UTF-8"?>
<svg id="Layer_3" data-name="Layer 3" xmlns="http://www.w3.org/2000/svg" viewBox="0 0 128 128">
  <defs>
    <style>
      .cls-1 {
        fill: #fff;
      }
    </style>
  </defs>
  <path class="cls-1" d="m111.91,51.55c-5.37,0-9.95,3.36-11.78,8.09l-31.58-5.96c-.08-1.81-.63-3.49-1.54-4.93l11.25-11.41c1.73,1.11,3.78,1.77,5.99,1.77,6.13,0,11.11-4.97,11.11-11.11s-4.97-11.11-11.11-11.11-11.11,4.97-11.11,11.11c0,2.26.68,4.37,1.85,6.12l-11.25,11.41c-1.53-.94-3.32-1.49-5.25-1.49-2.41,0-4.63.85-6.36,2.27l-20.95-16.16c.76-1.62,1.2-3.43,1.2-5.34,0-6.98-5.66-12.64-12.64-12.64s-12.64,5.66-12.64,12.64,5.66,12.64,12.64,12.64c3.42,0,6.51-1.36,8.79-3.56l20.81,16.05c-.58,1.27-.91,2.68-.91,4.17,0,.55.06,1.08.14,1.61l-13.74,5.66c-1.49-1.85-3.76-3.03-6.32-3.03-4.48,0-8.11,3.63-8.11,8.11s3.63,8.11,8.11,8.11,8.11-3.63,8.11-8.11c0-.28-.02-.57-.04-.84l13.73-5.65c1.12,1.57,2.69,2.8,4.51,3.52l-4.1,28.25c-6.4.3-11.5,5.57-11.5,12.04s5.4,12.07,12.07,12.07,12.07-5.4,12.07-12.07c0-5.27-3.39-9.74-8.1-11.39l4.1-28.25c3.74-.32,6.89-2.67,8.35-5.96l31.56,5.95s0,.03,0,.05c0,6.98,5.66,12.64,12.64,12.64s12.64-5.66,12.64-12.64-5.66-12.64-12.64-12.64Z"/>
</svg>