<?xml version="1.0" encoding="utf-8"?>
<!-- Generator: Adobe Illustrator 27.5.0, SVG Export Plug-In . SVG Version: 6.00 Build 0)  -->
<svg version="1.1" id="Layer_3" xmlns="http://www.w3.org/2000/svg" xmlns:xlink="http://www.w3.org/1999/xlink" x="0px" y="0px"
	 viewBox="0 0 128 128" style="enable-background:new 0 0 128 128;" xml:space="preserve">
<style type="text/css">
	.st0{fill:#FFFFFF;}
</style>
<g>
	<polygon class="st0" points="48.8,32.4 57.2,32.4 57.2,40.9 63.4,40.9 63.4,19.1 57.2,19.1 57.2,27.3 48.8,27.3 48.8,19.1 
		42.6,19.1 42.6,40.9 48.8,40.9 	"/>
	<path class="st0" d="M85.4,39.6c1.8-0.9,3.3-2.2,4.3-3.8s1.6-3.6,1.6-5.8s-0.5-4.2-1.6-5.8c-1-1.6-2.5-2.9-4.3-3.8
		c-1.8-0.9-4-1.3-6.4-1.3H68.7v21.9H79C81.4,40.9,83.6,40.5,85.4,39.6L85.4,39.6z M74.9,36V24h3.9c1.2,0,2.3,0.2,3.3,0.7
		c0.9,0.5,1.7,1.1,2.2,2s0.8,2,0.8,3.2s-0.3,2.3-0.8,3.2c-0.5,0.9-1.2,1.6-2.2,2.1S80,36,78.8,36C78.8,36,74.9,36,74.9,36z"/>
	<path class="st0" d="M118,53.1H10.1c-5.3,0-9.6,4.3-9.6,9.5v38.1c0,5.3,4.3,9.5,9.6,9.5H118c5.3,0,9.5-4.3,9.5-9.5V62.6
		C127.5,57.4,123.2,53.1,118,53.1L118,53.1z M19.1,90.2c-4.7,0-8.6-3.8-8.6-8.6s3.8-8.6,8.6-8.6s8.6,3.8,8.6,8.6
		S23.9,90.2,19.1,90.2z M54,92.5H37.5V70.8h6.1v16.8H54V92.5z M64.2,92.5h-6.1V70.8h6.1V92.5z M82.9,92.5h-6l-9.3-21.7h6.6L80.1,85
		l6-14.1h6.1C92.2,70.8,82.9,92.5,82.9,92.5z M112.6,92.5H95.2V70.8h17v4.7h-10.9v3.7h9.6v4.6h-9.6v4h11.3V92.5z"/>
</g>
</svg>
