<?xml version="1.0" encoding="UTF-8"?>
<svg id="Layer_3" data-name="Layer 3" xmlns="http://www.w3.org/2000/svg" viewBox="0 0 128 128">
  <defs>
    <style>
      .cls-1 {
        fill: #fff;
      }
    </style>
  </defs>
  <path class="cls-1" d="m117.5,46.73h-3.28l-.23-.63c-2.57-7.18-6.78-13.88-12.17-19.34-.39-.4-.79-.79-1.19-1.18l.02-.02-1.59-1.4c-9.67-8.54-22.12-13.24-35.07-13.25,0,0,0,0-.01,0,0,0,0,0,0,0,0,0,0,0,0,0-.81,0-1.62.02-2.42.06-12.08.55-23.59,5.19-32.61,13.19,0,0,0,0-.01.01,0,0-.02.01-.03.02l-1.6,1.41h.02c-.4.4-.79.78-1.17,1.15-5.4,5.47-9.61,12.17-12.18,19.35l-.23.63h-3.28c-1.38,0-2.48,1.13-2.48,2.51v29.51c0,1.38,1.1,2.51,2.48,2.51h3.28l.23.63c2.57,7.17,6.78,13.87,12.17,19.37.4.41.8.81,1.21,1.19l-.02.02,1.57,1.39c9.67,8.54,22.12,13.25,35.07,13.25,0,0,0,0,0,0,0,0,0,0,0,0,0,0,0,0,.01,0,.8,0,1.6-.02,2.4-.05,12.08-.55,23.6-5.18,32.65-13.18,0,0,0,0,0,0,0,0,0,0,0,0l1.58-1.4-.02-.02c.4-.39.8-.77,1.2-1.18,5.4-5.5,9.61-12.2,12.18-19.37l.23-.63h3.28c1.38,0,2.51-1.13,2.51-2.51v-29.51c0-1.38-1.13-2.51-2.51-2.51Zm-22.6,55.73c-.17.14-.34.26-.51.4-.4.31-.8.63-1.21.93-.23.17-.47.33-.7.5-.35.25-.71.5-1.07.75-.26.17-.52.33-.78.5-.35.22-.69.45-1.04.66-.27.16-.55.32-.82.48-.35.2-.69.4-1.05.6-.28.16-.57.3-.86.45-.35.18-.7.37-1.05.54-.29.14-.59.28-.88.42-.35.17-.71.33-1.07.49-.3.13-.6.26-.9.38-.36.15-.72.3-1.09.44-.31.12-.61.23-.92.35-.2.07-.39.14-.59.21,3.47-3,6.6-6.99,9.24-11.83.02.01.04.02.06.03,1.87,1.14,3.64,2.38,5.26,3.7,0,0-.02.01-.02.02Zm-48.75,7.55c-.4-.15-.79-.31-1.19-.48-.27-.11-.53-.22-.8-.34-.4-.18-.8-.36-1.19-.55-.25-.12-.5-.24-.76-.36-.4-.2-.81-.41-1.2-.62-.24-.12-.47-.25-.71-.38-.41-.23-.82-.46-1.22-.7-.22-.13-.43-.25-.65-.38-.43-.26-.84-.53-1.26-.8-.19-.12-.38-.24-.56-.36-.45-.3-.89-.62-1.33-.93-.15-.11-.3-.21-.45-.32-.52-.38-1.04-.78-1.55-1.19-.06-.05-.12-.09-.18-.14-.01-.01-.03-.02-.04-.03,1.61-1.31,3.36-2.55,5.25-3.69.02-.02.05-.03.08-.04,2.66,4.86,5.8,8.85,9.29,11.86-.23-.08-.46-.16-.68-.24-.28-.1-.56-.21-.84-.31Zm15.97-26.87v4.7c-7.71.27-15.27,2.21-22.12,5.69-1.47-3.21-2.71-6.68-3.67-10.38h25.8Zm3.76,8.45c7.13.27,14.12,2.08,20.45,5.3-5.3,9.71-12.6,15.55-20.45,16.35v-21.66Zm-3.76,21.66c-7.83-.81-15.14-6.65-20.45-16.36,6.32-3.21,13.31-5.02,20.45-5.29v21.66Zm25.88-19.72c-6.83-3.47-14.4-5.42-22.12-5.7v-4.7h25.8c-.94,3.66-2.19,7.13-3.68,10.39ZM33.09,25.56c.14-.11.28-.21.42-.32.43-.34.86-.68,1.3-1,.22-.16.44-.31.66-.47.37-.26.74-.53,1.11-.78.25-.16.5-.32.74-.48.36-.23.71-.46,1.07-.68.26-.16.53-.31.8-.47.35-.21.71-.41,1.07-.61.27-.15.55-.3.83-.44.36-.19.72-.38,1.08-.55.29-.14.57-.28.86-.41.36-.17.72-.34,1.09-.5.29-.13.59-.25.88-.38.37-.15.74-.3,1.11-.45.3-.12.6-.23.9-.34.21-.08.42-.15.63-.22-3.47,3-6.6,7-9.25,11.84l-.09-.05c-1.84-1.13-3.59-2.36-5.23-3.67,0,0,.01-.01.02-.02Zm48.74-7.56c.39.15.79.31,1.18.47.27.11.54.23.81.35.4.17.79.36,1.18.54.26.12.51.24.77.37.4.2.8.4,1.19.61.24.13.48.25.71.38.41.22.81.46,1.22.7.22.13.44.25.65.38.42.26.84.52,1.25.79.19.12.39.24.57.37.45.3.89.61,1.33.93.15.11.3.21.45.31.54.4,1.08.81,1.6,1.23.04.03.09.06.13.1,0,0,.02.02.03.02-1.64,1.32-3.39,2.55-5.23,3.66l-.1.06c-2.65-4.84-5.78-8.83-9.25-11.83.22.08.43.15.65.23.28.1.57.21.85.32Zm-15.96,26.85v-4.7c7.71-.28,15.27-2.23,22.1-5.7,1.5,3.22,2.75,6.7,3.7,10.4h-25.8Zm-3.76-8.45c-7.13-.27-14.11-2.08-20.43-5.29,5.3-9.7,12.6-15.53,20.43-16.34v21.63Zm3.76-21.63c7.82.81,15.12,6.63,20.42,16.33-6.31,3.21-13.3,5.03-20.42,5.3V14.76Zm-25.87,19.7c6.83,3.47,14.4,5.42,22.11,5.69v4.69h-25.8c.97-3.74,2.22-7.21,3.69-10.39Zm54.47,18.98l-6.88,21.19h-6.41l-4.07-12.91-4.24,12.91h-6.41l-6.88-21.19h6.19l4.27,13.51,4.49-13.51h5.5l4.29,13.65,4.43-13.65h5.72Zm-38.83,8.2v4.49h-9.41v3.85h11.09v4.65h-17.01v-21.19h16.62v4.62h-10.71v3.58h9.41Zm-40.62-8.2h4.93l9.36,11.28v-11.28h5.89v21.19h-4.95l-9.36-11.31v11.31h-5.86v-21.19Zm98.26,18.16c-.69,1.05-1.73,1.87-3.11,2.5-1.38.63-3.14.94-5.23.94-1.73,0-3.41-.22-5.01-.66-1.6-.41-2.92-.99-3.91-1.68l1.95-4.4c.96.61,2.04,1.1,3.28,1.49,1.27.41,2.48.61,3.72.61.83,0,1.49-.08,2.01-.25.5-.14.88-.33,1.1-.61.22-.25.36-.55.36-.88,0-.5-.22-.88-.69-1.16-.44-.28-1.02-.52-1.71-.69-.72-.19-1.49-.36-2.37-.55-.85-.19-1.71-.41-2.56-.69-.85-.28-1.65-.66-2.34-1.1-.72-.47-1.29-1.05-1.73-1.79-.44-.74-.66-1.68-.66-2.81,0-1.27.33-2.42,1.05-3.44.69-1.05,1.73-1.87,3.14-2.5,1.38-.61,3.11-.94,5.2-.94,1.38,0,2.75.17,4.1.47,1.35.33,2.53.77,3.58,1.38l-1.84,4.46c-1.02-.55-2.01-.96-3-1.21-.99-.28-1.95-.41-2.86-.41-.83,0-1.51.08-2.01.25-.5.17-.85.41-1.07.69-.25.28-.36.61-.36.96,0,.47.22.83.66,1.1.44.28,1.02.5,1.73.66.72.19,1.49.36,2.37.55.85.17,1.71.39,2.56.66.85.28,1.65.63,2.34,1.1.72.44,1.29,1.05,1.71,1.79.44.74.66,1.65.66,2.75,0,1.24-.36,2.37-1.05,3.41Zm-3.79-26.76h-13.96c-1.06-4.35-2.49-8.44-4.25-12.2l.34-.2c2.2-1.33,4.26-2.81,6.17-4.4.46.43.91.87,1.36,1.33,4.38,4.44,7.92,9.75,10.34,15.47ZM28.83,29.39c.43-.43.89-.88,1.37-1.32,1.91,1.57,3.97,3.05,6.18,4.4l.31.18c-1.73,3.7-3.15,7.8-4.24,12.2h-13.94c2.42-5.72,5.96-11.02,10.33-15.46Zm-10.33,53.74h13.97c1.08,4.36,2.49,8.44,4.23,12.19-.12.07-.24.14-.35.21-2.23,1.35-4.29,2.84-6.16,4.41-.45-.43-.9-.86-1.34-1.32-4.38-4.47-7.92-9.78-10.34-15.5Zm80.63,15.5c-.44.45-.89.89-1.34,1.31-1.9-1.58-3.97-3.07-6.18-4.41-.11-.07-.22-.13-.33-.2,1.77-3.81,3.19-7.9,4.24-12.2h13.96c-2.42,5.71-5.96,11.03-10.35,15.5Z"/>
</svg>