<?xml version="1.0" encoding="UTF-8"?>
<svg id="Layer_3" data-name="Layer 3" xmlns="http://www.w3.org/2000/svg" viewBox="0 0 128 128">
  <defs>
    <style>
      .cls-1 {
        fill: #fff;
      }
    </style>
  </defs>
  <path class="cls-1" d="m73.61,28.33c-.05-2.68-1.07-5.35-3.07-7.44-4.22-4.4-11.21-4.54-15.61-.32-2.07,1.99-3.19,4.58-3.37,7.23-.02-.01-.05-.03-.07-.04-4.34-2.07-9.54-.23-11.61,4.11-1.28,2.69-1.07,5.7.31,8.1-.05-1.36.22-2.75.85-4.06,2.07-4.34,7.27-6.18,11.61-4.11,1.66.79,2.95,2.04,3.8,3.52-.1-2.75-1.5-5.37-3.89-6.96.51-.9,1.16-1.74,1.94-2.49,4.4-4.22,11.39-4.08,15.61.32.87.9,1.55,1.91,2.05,2.99-.33.24-.65.51-.96.8-1.55,1.49-2.46,3.4-2.71,5.38-2.21-.89-4.78-.81-7.02.44-2.43,1.36-3.89,3.77-4.13,6.34.69-1.06,1.65-1.97,2.83-2.64,3.92-2.19,8.88-.79,11.07,3.13.84,1.5,1.15,3.14,1,4.73,1.61-2.45,1.83-5.7.3-8.43-.73-1.31-1.78-2.34-2.99-3.05.36-.55.79-1.07,1.29-1.54,3.61-3.47,9.34-3.35,12.81.26,1.32,1.38,2.12,3.06,2.41,4.81,1.04-3.1.37-6.65-2.05-9.17-2.76-2.88-6.97-3.53-10.39-1.92Z"/>
  <path class="cls-1" d="m109.23,33.7c-.25-5.79-5.14-10.28-10.93-10.04-1.35.06-2.63.37-3.79.88,0,0,0,0,0,0,.76-1.37,1.18-2.96,1.14-4.64-.13-5.03-4.31-9.01-9.34-8.88-1.82.05-3.5.62-4.9,1.58-2.64-3.94-7.5-5.83-12.12-4.68-.82-2.54-2.59-4.78-5.13-6.14-5.22-2.8-11.71-.83-14.51,4.38-1.73,3.22-1.64,6.94-.08,9.96-1.97-3.75-5.9-6.3-10.42-6.3-6.5,0-11.77,5.27-11.77,11.77,0,2.54.8,4.89,2.17,6.81-.76-.12-1.55-.14-2.35-.06-5.14.53-8.89,5.13-8.36,10.27.15,1.5.65,2.87,1.41,4.06l9.29,68.25,10.67,5.3-5.71-61.1,13.95,5.38,2.87,61.24,11.6,5.76,11.66-5.65,3.05-61.74,13.93-5.65-5.67,61.9,10.98-5.33,9.06-69.21c2.16-2.02,3.46-4.93,3.33-8.12Zm-46.05,24.56l-40.77-15.12c-.12-.47-.22-.96-.27-1.46-.53-5.15,3.22-9.74,8.36-10.27,1.96-.2,3.85.22,5.45,1.1-1.07-1.62-2.62-2.87-4.42-3.58-.27-.98-.41-2.02-.41-3.08,0-6.5,5.27-11.77,11.77-11.77,2.48,0,4.78.77,6.68,2.08,0,0,0-.02-.01-.02.02-1.67.43-3.36,1.27-4.94,2.8-5.22,9.29-7.18,14.51-4.39.86.46,1.62,1.02,2.3,1.65-.03.01-.07.03-.1.04-3.55,1.53-5.93,4.66-6.63,8.18,1.11-1.37,2.57-2.49,4.3-3.24,5.74-2.47,12.4.19,14.86,5.93.94,2.19,1.14,4.51.7,6.69,2.58-3.16,3.35-7.62,1.63-11.63-.05-.12-.11-.24-.16-.36.28-.03.56-.05.84-.06,5.03-.13,9.22,3.85,9.34,8.88.03,1.16-.16,2.27-.53,3.3-.79.68-1.48,1.48-2.03,2.37.37-.22.76-.41,1.16-.58-.02.04-.05.08-.07.12.15-.08.3-.17.44-.26,0,0,0,0,0,0,1.02-.39,2.11-.62,3.26-.67,5.79-.25,10.68,4.25,10.93,10.03.07,1.63-.24,3.18-.84,4.58l-41.57,16.46Z"/>
</svg>