<?xml version="1.0" encoding="utf-8"?>
<!-- Generator: Adobe Illustrator 27.5.0, SVG Export Plug-In . SVG Version: 6.00 Build 0)  -->
<svg version="1.1" id="Layer_3" xmlns="http://www.w3.org/2000/svg" xmlns:xlink="http://www.w3.org/1999/xlink" x="0px" y="0px"
	 viewBox="0 0 128 128" style="enable-background:new 0 0 128 128;" xml:space="preserve">
<style type="text/css">
	.st0{fill:#FFFFFF;}
</style>
<g>
	<path class="st0" d="M117.4,60.4l-19.1,3.9v-4.8c0-1-0.8-1.8-1.8-1.8h-0.2c2.8-3.7,4.4-8.2,4.4-13.2c0-12-9.8-21.8-21.8-21.8
		c-6.3,0-12.1,2.7-16,7c-4.2-8-12.6-13.5-22.2-13.5c-13.8,0-25,11.2-25,25c0,6.3,2.3,12,6.1,16.4h-1.9c-1,0-1.8,0.8-1.8,1.8v40.9
		c0,1,0.8,1.8,1.8,1.8h25.2v8.4c0,0.6,0.5,1,1,1h24.3c0.6,0,1-0.5,1-1v-8.4h25.2c1,0,1.8-0.8,1.8-1.8v-5.2l19.1,3.9
		c1.8,0.4,3.5-0.9,3.5-2.7V63.1C120.9,61.3,119.2,60,117.4,60.4L117.4,60.4z M79,31.4c7.3,0,13.2,5.9,13.2,13.2S86.8,57.3,80,57.8
		h-1.9c-6.8-0.5-12.3-6.2-12.3-13.2S71.7,31.4,79,31.4L79,31.4z M24.3,41.4c0-9.1,7.4-16.4,16.5-16.4s16.5,7.4,16.5,16.4
		s-6.9,15.9-15.5,16.4h-1.9C31.2,57.3,24.3,50.2,24.3,41.4L24.3,41.4z"/>
	<path class="st0" d="M7.3,71h4.1c1.2,0,2.2,1,2.2,2.2v13.6c0,1.2-1,2.2-2.2,2.2H7.3c-1.2,0-2.2-1-2.2-2.2V73.2
		C5.1,72,6.1,71,7.3,71z"/>
</g>
</svg>
