<?xml version="1.0" encoding="utf-8"?>
<!-- Generator: Adobe Illustrator 27.5.0, SVG Export Plug-In . SVG Version: 6.00 Build 0)  -->
<svg version="1.1" id="Layer_3" xmlns="http://www.w3.org/2000/svg" xmlns:xlink="http://www.w3.org/1999/xlink" x="0px" y="0px"
	 viewBox="0 0 128 128" style="enable-background:new 0 0 128 128;" xml:space="preserve">
<style type="text/css">
	.st0{fill:#FFFFFF;}
</style>
<g>
	<path class="st0" d="M35.2,45.3h82.4c2.7,0,4.9-2.2,4.9-4.9s-2.2-4.9-4.9-4.9H35.2c-2.7,0-4.9,2.2-4.9,4.9S32.5,45.3,35.2,45.3z"/>
	<path class="st0" d="M117.7,59.1H35.2c-2.7,0-4.9,2.2-4.9,4.9c0,2.7,2.2,4.9,4.9,4.9h82.4c2.7,0,4.9-2.2,4.9-4.9
		S120.4,59.1,117.7,59.1z"/>
	<path class="st0" d="M117.7,82.7H35.2c-2.7,0-4.9,2.2-4.9,4.9s2.2,4.9,4.9,4.9h82.4c2.7,0,4.9-2.2,4.9-4.9S120.4,82.7,117.7,82.7z"
		/>
	<circle class="st0" cx="15.4" cy="40.4" r="5"/>
	<circle class="st0" cx="15.4" cy="64" r="5"/>
	<circle class="st0" cx="15.4" cy="87.6" r="5"/>
</g>
</svg>
