<?xml version="1.0" encoding="utf-8"?>
<!-- Generator: Adobe Illustrator 27.5.0, SVG Export Plug-In . SVG Version: 6.00 Build 0)  -->
<svg version="1.1" id="Layer_3" xmlns="http://www.w3.org/2000/svg" xmlns:xlink="http://www.w3.org/1999/xlink" x="0px" y="0px"
	 viewBox="0 0 128 128" style="enable-background:new 0 0 128 128;" xml:space="preserve">
<style type="text/css">
	.st0{fill-rule:evenodd;clip-rule:evenodd;fill:#FFFFFF;}
</style>
<g>
	<path class="st0" d="M109.7,56.5c-1.6-9.1-5.4-16.8-11.2-22.9C92.8,27.6,85.2,23.2,76,20.7c-9.5-2.5-18.5-2.6-26.6-0.2
		s-15.6,7.2-22,14.3c-6.1,6.8-9.8,14.4-11,22.5c-1.2,8.1,0.1,16.7,3.9,25.6c0.2,0.5,0.3,1,0.4,1.6s0.1,1.3,0,1.9
		c-0.2,1.7-0.5,3.4-0.7,5.1c-0.3,1.7-0.6,3.5-0.9,5.3c-0.1,0.8-0.3,1.5-0.4,2.3s-0.3,1.6-0.4,2.3l-0.6,3.6l-0.6,3.6l3.6-0.6l3.6-0.6
		c0.8-0.1,1.6-0.3,2.4-0.4c0.8-0.1,1.6-0.2,2.3-0.4c1.7-0.3,3.3-0.5,5-0.8s3.2-0.5,4.8-0.8c1.3-0.2,2.4-0.3,3.5-0.2s2.2,0.3,3.3,0.8
		c3.1,1.2,6.3,2,9.4,2.6c3.1,0.6,6.1,0.9,9.2,0.9c5.1,0,10-0.8,14.8-2.5c4.8-1.7,9.3-4.1,13.7-7.4c7.2-5.4,12.3-11.8,15.2-19.1
		C110.6,73.1,111.3,65.1,109.7,56.5L109.7,56.5z M94.5,74.9c-2,5-5.5,9.5-10.7,13.3c-5.2,3.9-10.6,6.2-16.4,6.8
		c-5.8,0.7-11.9-0.3-18.4-2.8c-1.3-0.5-2.6-0.8-3.9-1S42.5,91,41.4,91c-0.4,0-0.7,0-1.1,0c-0.3,0-0.7,0-1,0.1
		c-0.9,0.1-1.7,0.1-2.6,0.2s-1.7,0.2-2.5,0.3c0.5-3.1,0.7-5.9,0.4-8.7s-1-5.5-2.2-8.2C30,69,29.3,63.4,30.4,58.2s3.9-10.3,8.5-15
		c4.6-4.8,9.7-7.9,15.3-9.4c5.6-1.5,11.6-1.4,18.1,0.4c6.5,1.8,11.7,4.7,15.6,8.7c3.9,4,6.5,9.2,7.7,15.4
		C96.8,64.4,96.5,69.9,94.5,74.9L94.5,74.9z"/>
	<path class="st0" d="M75.8,64.1c-0.1-0.1-0.2-0.1-0.3-0.2c-2.7-2.2-5.4-4.5-8.2-6.8c-2.7-2.2-5.4-4.5-8.2-6.8
		c-0.1-0.1-0.3-0.2-0.5-0.3s-0.4-0.1-0.5-0.2c-0.3-0.1-0.5,0-0.8,0.1s-0.4,0.3-0.5,0.6c-0.1,0.2-0.1,0.3-0.2,0.5c0,0.2,0,0.3,0,0.5
		c0,2.3,0,4.6,0,6.9s0,4.6,0,6.9h0c0,2.3,0,4.6,0,6.8s0,4.6,0,6.8c0,0.1,0,0.2,0,0.3c0,0.1,0,0.2,0,0.3c0.1,0.5,0.3,0.8,0.6,1
		c0.3,0.2,0.7,0.2,1.2,0.1c0.1-0.1,0.3-0.1,0.4-0.2c0.1-0.1,0.3-0.2,0.4-0.3c2-1.7,4-3.3,6-4.9c2-1.7,4-3.3,6-4.9
		c0.8-0.7,1.6-1.3,2.4-2c0.8-0.7,1.6-1.3,2.4-2c0.4-0.3,0.6-0.7,0.6-1.1c0-0.4-0.2-0.8-0.6-1.1C75.9,64.2,75.8,64.2,75.8,64.1
		L75.8,64.1z"/>
</g>
</svg>
