<?xml version="1.0" encoding="utf-8"?>
<!-- Generator: Adobe Illustrator 27.5.0, SVG Export Plug-In . SVG Version: 6.00 Build 0)  -->
<svg version="1.1" id="Layer_3" xmlns="http://www.w3.org/2000/svg" xmlns:xlink="http://www.w3.org/1999/xlink" x="0px" y="0px"
	 viewBox="0 0 128 128" style="enable-background:new 0 0 128 128;" xml:space="preserve">
<style type="text/css">
	.st0{fill:#FFFFFF;}
</style>
<g>
	<path class="st0" d="M23.6,65.7c-3.2,0-6.1,1.3-8.2,3.4c-2.1,2.1-3.4,5-3.4,8.2c0,0.8,0.1,1.6,0.2,2.4c0.1,0.6,0.3,1.1,0.4,1.6
		c0.5,1.3,1.2,2.5,2.1,3.5c1.4,1.6,3.2,3.4,5,5.1c1,0.9,1.9,1.8,2.7,2.7l1.1,1.1l1.1-1.1c0.8-0.8,1.7-1.7,2.7-2.6
		c1.8-1.8,3.8-3.6,5.1-5.2c0.8-1,1.5-2.2,2-3.5c0.2-0.5,0.3-1,0.4-1.5c0.2-0.8,0.3-1.6,0.3-2.4c0-3.2-1.3-6-3.4-8.2
		C29.7,67,26.8,65.7,23.6,65.7z M31.7,79.7c0,0.2-0.1,0.3-0.2,0.5c-0.3,0.9-0.8,1.8-1.5,2.5c-1.3,1.5-3.1,3.3-4.9,5
		c-0.5,0.5-1.1,1.1-1.6,1.6c-0.5-0.6-1.1-1.1-1.7-1.6c-1.7-1.6-3.5-3.4-4.8-4.8c-0.6-0.8-1.1-1.6-1.5-2.6c-0.1-0.2-0.1-0.4-0.2-0.5
		c-0.2-0.8-0.4-1.6-0.4-2.4c0-2.3,0.9-4.4,2.5-6c1.5-1.5,3.7-2.5,6-2.5s4.5,1,6,2.5c1.5,1.5,2.5,3.7,2.5,6
		C32.1,78.1,32,78.9,31.7,79.7L31.7,79.7z"/>
	<path class="st0" d="M23.6,73.1c-1.1,0-2.2,0.4-3,1.2c-0.8,0.8-1.2,1.8-1.2,3c0,0.9,0.3,1.7,0.8,2.4c0.1,0.2,0.3,0.4,0.5,0.6v0
		c0.8,0.8,1.8,1.2,3,1.2s2.2-0.4,3-1.2v0c0.2-0.2,0.4-0.4,0.5-0.6c0.5-0.7,0.8-1.5,0.8-2.4c0-1.1-0.4-2.2-1.2-3
		C25.8,73.5,24.8,73.1,23.6,73.1z"/>
	<path class="st0" d="M99.5,65.7c-3.2,0-6.1,1.3-8.2,3.4h-0.1c-2.1,2.1-3.4,5-3.4,8.2c0,0.8,0.1,1.6,0.2,2.4
		c0.1,0.6,0.3,1.1,0.5,1.6c0.5,1.3,1.2,2.5,2.1,3.5c1.4,1.6,3.2,3.4,5,5.1c1,0.9,2,1.8,2.8,2.7l1.1,1.1l1.1-1.1
		c0.8-0.8,1.7-1.7,2.7-2.6c1.8-1.8,3.8-3.6,5.2-5.2c0.8-1,1.5-2.2,2-3.5c0.2-0.5,0.3-1,0.4-1.5c0.2-0.8,0.2-1.6,0.2-2.4
		c0-3.2-1.3-6-3.4-8.2C105.6,67,102.7,65.7,99.5,65.7z M107.6,79.7c0,0.2-0.1,0.3-0.2,0.5c-0.3,0.9-0.8,1.8-1.5,2.5
		c-1.3,1.5-3.2,3.3-4.9,5c-0.6,0.5-1.1,1.1-1.6,1.6c-0.5-0.6-1.1-1.1-1.7-1.6c-1.7-1.6-3.5-3.4-4.8-4.8c-0.7-0.8-1.2-1.6-1.5-2.6
		c-0.1-0.2-0.1-0.4-0.2-0.5c-0.2-0.8-0.3-1.6-0.3-2.4c0-2.3,0.9-4.4,2.5-6c1.6-1.5,3.7-2.5,6-2.5s4.5,1,6,2.5c1.5,1.5,2.5,3.7,2.5,6
		C108,78.1,107.9,78.9,107.6,79.7L107.6,79.7z"/>
	<path class="st0" d="M99.5,73.1c-1.2,0-2.2,0.4-3,1.2c-0.8,0.8-1.2,1.8-1.2,3c0,0.9,0.3,1.7,0.8,2.4c0.1,0.2,0.3,0.4,0.5,0.6v0
		c0.8,0.8,1.8,1.2,3,1.2s2.2-0.4,3-1.2v0c0.2-0.2,0.3-0.4,0.5-0.6c0.5-0.7,0.8-1.5,0.8-2.4c0-1.1-0.5-2.2-1.2-3
		C101.7,73.5,100.6,73.1,99.5,73.1z"/>
	<path class="st0" d="M84.8,78.5l-47-0.1c-0.7,0-1.4,0.5-1.5,1.2c0,0.1,0,0.2,0,0.3c0,0.8,0.7,1.5,1.5,1.5l47,0.1
		c0.8,0,1.6-0.7,1.6-1.5c0-0.1,0-0.3-0.1-0.4C86.2,79,85.5,78.5,84.8,78.5z"/>
	<path class="st0" d="M122.6,57.6c-3.2-4.8-19.9-7.3-21.4-7.5c-1.7-0.4-8.5-4.7-14.2-8.2c-3.2-2-6-3.7-7.4-4.5l-0.1,0
		c-7.9-3.5-19.1-2.9-19.2-2.9H16.6c0,0-2.8,0.1-4.3,0.1c-1,0-1.7,0.3-2.3,0.6c-0.7,0.4-1.1,1-1.3,1.6c-0.2,0.7-0.3,1.6-0.3,2.1
		C6,43.3,5.2,51.4,5,53.9c-1,1.1-1,2.7-1,2.7l-0.4,6.6c-0.1,1.4,0.8,2,1.6,2.3l-0.3,6.7c-1.1,0.2-2.3,0.3-2.6,1.9l0,0.2v0.2
		c0,0-0.1,0.3,0,2.2c0.1,1.6,1.1,2.6,2.5,3.2c1.5,0.7,3.6,0.9,4.7,0.9c0.7,0,1.2-0.4,1.5-1c0.1-0.2,0.1-0.3,0.1-0.5
		c0-0.9-0.7-1.5-1.6-1.5S7.1,77.5,6.1,77c-0.4-0.2-0.7-0.3-0.7-0.6c-0.1-0.5-0.1-0.9-0.1-1.2C6.7,75,8,74.8,8,72.8l0.4-8.6l0.1-1.9
		l-1.7,0.3l0.4-5.9v-0.1c0,0-0.2-0.4-0.1-0.5l1-0.3l0.1-1c0,0,0.7-10.3,3.3-14.8l0.2-0.4v-0.4c0,0,0-1.2,0.1-1.5
		c0.2-0.1,0.4-0.2,0.8-0.2c1.5,0,4.2-0.2,4.3-0.2l43.5,0h0c0,0,10.5-0.6,17.8,2.6c1.3,0.7,4.1,2.4,7.2,4.4c5.9,3.7,13,8.1,15.2,8.6
		h0.1c0,0,16.7,2.4,19.3,6.2c4.3,6.3,2.4,12.7,0.8,18.2l-0.2,0.7c-0.1,0.3-3.9,0.1-5.9,0.3l-0.9,0.1c-0.7,0.1-1.2,0.6-1.3,1.2
		c-0.1,0.2-0.1,0.3,0,0.5c0.1,0.8,0.8,1.5,1.7,1.4c0.4,0,0.7-0.1,0.9-0.1c2.6-0.3,8-0.8,8.5-2.5l0.2-0.7
		C125.5,72.2,127.7,65.1,122.6,57.6L122.6,57.6z"/>
	<path class="st0" d="M52,42.5c-2.7,0-19.6,0-19.6,0c-8.7,0-14.4-2.4-16,8.2c0,0-0.2,1.5,1.1,2.4c1.2,0.9,2.9,2.2,5.1,2.3
		c2.1,0.1,9.8,0.3,9.8,0.3L46.1,56c0,0,4-0.4,6.2-1.9c2.2-1.5,1.9-3.1,1.9-3.9s0-5.6,0-5.6S54.6,42.5,52,42.5L52,42.5z"/>
	<path class="st0" d="M72.5,57.1c4.2,0.3,16.4,1.1,16.4,1.1c3.5,0.2,4.8-0.4,5.1-1.2c0.5-1.7-5.1-4.8-7.3-6.3l-7.4-4.5
		c0,0-4.5-3.7-17.6-3.1c-3.2-0.1-1.6,5.8-1.5,8.3C61,55.2,69.2,56.9,72.5,57.1z"/>
</g>
</svg>
