<svg id="nea_kriti" data-name="nea kriti" xmlns="http://www.w3.org/2000/svg" width="60" height="60" viewBox="0 0 60 60">
  <g id="Ellipse_121" data-name="Ellipse 121" fill="#fff" stroke="#707070" stroke-width="1">
    <circle cx="30" cy="30" r="30" stroke="none"/>
    <circle cx="30" cy="30" r="29.5" fill="none"/>
  </g>
  <g id="logo" transform="translate(7.371 25.069)">
    <g id="Group_177236" data-name="Group 177236">
      <g id="Group_177234" data-name="Group 177234" transform="translate(0 2.664)">
        <g id="Group_177233" data-name="Group 177233">
          <path id="Path_62361" data-name="Path 62361" d="M5.787,171.583A2.257,2.257,0,0,0,5.317,170a1.971,1.971,0,0,0-1.5-.5,2.522,2.522,0,0,0-1.152.251,2.785,2.785,0,0,0-.93.806v-.9H0v.534H1.025v4.959H0v.534H2.861v-.534H1.737v-3.112a1.935,1.935,0,0,1,.549-1.422,1.891,1.891,0,0,1,1.4-.555,1.375,1.375,0,0,1,1.055.365,1.666,1.666,0,0,1,.336,1.155v3.568H3.945v.534H6.806v-.534H5.787ZM9.32,169.5a2.652,2.652,0,0,0-2.064.849,3.257,3.257,0,0,0-.77,2.277,3.421,3.421,0,0,0,.764,2.378,2.751,2.751,0,0,0,2.149.846,2.692,2.692,0,0,0,1.734-.534,2.129,2.129,0,0,0,.781-1.474h-.588a1.658,1.658,0,0,1-.643,1.07,2.167,2.167,0,0,1-1.322.379,1.9,1.9,0,0,1-1.531-.646,2.928,2.928,0,0,1-.6-1.839h4.833V172.7a3.471,3.471,0,0,0-.731-2.342A2.521,2.521,0,0,0,9.32,169.5Zm-2.09,2.765a2.868,2.868,0,0,1,.649-1.644,1.8,1.8,0,0,1,1.388-.561,1.876,1.876,0,0,1,1.446.558,2.629,2.629,0,0,1,.6,1.647Zm10.193,2.884v-3.483a2.1,2.1,0,0,0-.585-1.635,2.6,2.6,0,0,0-1.793-.531,2.739,2.739,0,0,0-1.715.479,1.927,1.927,0,0,0-.709,1.405h.751a1.5,1.5,0,0,1,.5-1.014,1.908,1.908,0,0,1,1.182-.31,1.8,1.8,0,0,1,1.212.355,1.332,1.332,0,0,1,.409,1.059v.64a.332.332,0,0,1-.058-.006q-.993-.085-1.294-.085a3.979,3.979,0,0,0-2.207.5,1.672,1.672,0,0,0-.751,1.487,1.691,1.691,0,0,0,.564,1.338,2.255,2.255,0,0,0,1.539.5,2.718,2.718,0,0,0,1.228-.267,2.921,2.921,0,0,0,.979-.828v.932h1.737v-.534Zm-.745-2.178a2.467,2.467,0,0,1-.549,1.693,1.883,1.883,0,0,1-1.488.622,1.626,1.626,0,0,1-1.106-.361,1.2,1.2,0,0,1-.415-.949,1.125,1.125,0,0,1,.6-1.047,3.829,3.829,0,0,1,1.833-.343c.179,0,.361,0,.549.013s.379.022.575.039v.333Z" transform="translate(0 -169.5)" fill-rule="evenodd"/>
        </g>
      </g>
      <g id="Group_177235" data-name="Group 177235" transform="translate(21.99)">
        <path id="Path_62362" data-name="Path 62362" d="M1211.5,8.849V0h1.862V5.481c.284-.355.582-.736,2.136-2.658h1.542l-2.123,2.337,2.515,3.689h-2.147c-1.364-2.123-1.661-2.6-1.922-3.049V8.849Z" transform="translate(-1211.5)"/>
        <path id="Path_62363" data-name="Path 62363" d="M1604.8,175.98v-6.026h1.826v.926a1.551,1.551,0,0,1,1.4-1.08,1.966,1.966,0,0,1,.605.071v1.341a2.71,2.71,0,0,0-.913-.13,1.693,1.693,0,0,0-1.056.3v4.6Z" transform="translate(-1598.619 -167.131)"/>
        <path id="Path_62364" data-name="Path 62364" d="M1879.7,185.626V179.6h1.863v6.026Z" transform="translate(-1869.198 -176.777)"/>
        <path id="Path_62365" data-name="Path 62365" d="M2027.669,78.9v1.583h1.114v1.044h-1.114v2.989a1.7,1.7,0,0,0,.154.83.615.615,0,0,0,.558.273,1.453,1.453,0,0,0,.569-.107,1.517,1.517,0,0,1-1.375,1.114,1.8,1.8,0,0,1-1.293-.462,2.322,2.322,0,0,1-.475-1.661V81.526H2025v-.437Z" transform="translate(-2012.214 -77.66)"/>
        <path id="Path_62366" data-name="Path 62366" d="M2306.8,185.626V179.6h1.863v6.026Z" transform="translate(-2289.585 -176.777)"/>
      </g>
      <circle id="Ellipse_122" data-name="Ellipse 122" cx="0.927" cy="0.927" r="0.927" transform="translate(31.947 0.468)"/>
      <circle id="Ellipse_123" data-name="Ellipse 123" cx="0.927" cy="0.927" r="0.927" transform="translate(39.206 0.468)"/>
    </g>
    <g id="Group_177237" data-name="Group 177237" transform="translate(40.852 9.459)">
      <path id="Path_62367" data-name="Path 62367" d="M2411.6,601.8h4.847v1.11H2411.6Z" transform="translate(-2411.6 -601.8)" fill="#ed1c24" fill-rule="evenodd"/>
    </g>
  </g>
</svg>
